<svg width="473.001" height="473" xmlns="http://www.w3.org/2000/svg" xml:space="preserve" version="1.1" fill="#000000">

 <g>
  <title>Layer 1</title>
  <g id="svg_1">
   <path id="svg_2" d="m451.426,315.003c-0.517,-0.344 -1.855,-0.641 -2.41,-0.889l-201.09,-88.884l0,-28.879c38.25,-4.6 57.136,-29.835 57.136,-62.28c0,-35.926 -25.283,-63.026 -59.345,-63.026c-35.763,0 -65.771,29.481 -65.771,64.384c0,6.005 4.973,10.882 10.978,10.882c1.788,0 3.452,-0.535 4.934,-1.291c3.519,-1.808 6.024,-5.365 6.024,-9.591c0,-22.702 20.674,-42.62 44.217,-42.62c22.003,0 37.982,17.356 37.982,41.262c0,23.523 -19.011,41.262 -44.925,41.262c-6.005,0 -10.356,4.877 -10.356,10.882l0,21.267l0,21.353c0,0.21 -0.421,0.383 -0.401,0.593l-192.789,91.122c-28.429,10.242 -38.164,33.545 -35.056,51.331c3.194,18.293 18.704,30.074 38.795,30.074l382.911,0c23.782,0 42.438,-12.307 48.683,-32.942c6.167,-20.33 -1.865,-42.247 -19.517,-54.01zm-1.311,49.028c-3.452,11.427 -13.607,18.8 -27.846,18.8l-382.92,0c-9.725,0 -16.104,-5.394 -17.5,-13.368c-1.587,-9.104 4.265,-22.032 21.831,-28.42l199.531,-94.583l196.844,87.65c9.248,6.607 13.379,18.962 10.06,29.921z"/>
  </g>
  <line stroke-width="10" stroke-linecap="undefined" stroke-linejoin="undefined" id="svg_3" y2="505.5" x2="505.50049" y1="0.5" x1="0.50049" stroke="#000" fill="none"/>
 </g>
</svg>