<?xml version="1.0" encoding="iso-8859-1"?>
<!-- Generator: Adobe Illustrator 18.1.1, SVG Export Plug-In . SVG Version: 6.00 Build 0)  -->
<svg version="1.1" id="Capa_1" xmlns="http://www.w3.org/2000/svg" xmlns:xlink="http://www.w3.org/1999/xlink" x="0px" y="0px"
	 viewBox="0 0 31.999 31.999" style="enable-background:new 0 0 31.999 31.999;" xml:space="preserve">
<g>
	<path style="fill:#010002;" d="M25.646,5.552C24.316,2.806,21.355-0.035,16.002,0c-5.355-0.035-8.315,2.806-9.645,5.552
		C4.994,8.292,5.006,10.915,5,10.999c0.045,5.542,4.243,9.623,4.292,9.707c0.824,0.816,1.266,1.896,1.488,2.785
		c0.111,0.443,0.167,0.834,0.194,1.107c0.027,0.273,0.023,0.4,0.027,0.4v5.001h2l2,2h2l2-2h2V24.96c0-0.04,0.002-0.143,0.025-0.361
		c0.074-0.83,0.442-2.677,1.681-3.894c0.051-0.084,4.249-4.165,4.292-9.707C26.995,10.915,27.007,8.292,25.646,5.552z
		 M23.147,16.851c-0.471,0.764-0.941,1.383-1.293,1.808c-0.352,0.424-0.562,0.632-0.562,0.634c-1.559,1.593-2.047,3.548-2.206,4.708
		h-6.171c-0.16-1.16-0.649-3.115-2.208-4.708c0,0-0.21-0.21-0.562-0.634c-1.066-1.271-3.162-4.321-3.144-7.66
		c0-0.002-0.002-0.531,0.142-1.397C7.357,8.299,7.911,6.353,9.21,4.803c1.308-1.544,3.29-2.788,6.792-2.804
		c4.644,0.035,6.685,2.195,7.854,4.447c0.565,1.13,0.857,2.29,1,3.156c0.146,0.866,0.138,1.397,0.144,1.397
		C25.004,13.227,24.092,15.32,23.147,16.851z"/>
</g>
<g>
</g>
<g>
</g>
<g>
</g>
<g>
</g>
<g>
</g>
<g>
</g>
<g>
</g>
<g>
</g>
<g>
</g>
<g>
</g>
<g>
</g>
<g>
</g>
<g>
</g>
<g>
</g>
<g>
</g>
</svg>
