<svg width="122.88" height="113.88" xmlns="http://www.w3.org/2000/svg">
 <title>water-pump</title>

 <g>
  <title>Layer 1</title>
  <path id="svg_1" d="m35.6,20.12l60.22,0a27.14,27.14 0 0 1 27.06,27.06l0,26.95a25.33,25.33 0 0 1 -25.26,25.26l-5.24,0l4.17,9.71a3.27,3.27 0 0 1 0.34,1.46a3.32,3.32 0 0 1 -3.32,3.32l-49.14,0a3.39,3.39 0 0 1 -1.12,-0.2a3.31,3.31 0 0 1 -2,-4.23l3.6,-10l-9.31,0a10.93,10.93 0 0 1 -7.75,-3.23l0,0a11,11 0 0 1 -3.21,-7.75l0,-3.47l-9.94,0a5.57,5.57 0 0 1 -5.56,-5.6l0,-14.33l-9.14,0l0,-10.63l9.14,0l0,-14.33a5.57,5.57 0 0 1 5.56,-5.56l9.92,0l0,-3.44a11,11 0 0 1 3.22,-7.75l0,0a11,11 0 0 1 7.74,-3.22l0.02,-0.02zm-11,58.2l0,-37.13l-8.82,0l0,37.13l8.82,0zm6.66,-41.52a3.47,3.47 0 0 1 0.17,1.07l0,43.77a3.36,3.36 0 0 1 -0.17,1.06l0,5.7a4.33,4.33 0 0 0 1.26,3.07l0,0a4.27,4.27 0 0 0 3.06,1.27l56.92,0l0,-66l-56.9,0a4.27,4.27 0 0 0 -3.06,1.26l0,0a4.33,4.33 0 0 0 -1.26,3.07l0,5.73l-0.02,0zm24.74,-36.8l25.86,0a8,8 0 0 1 7.93,7.93l0,0a8,8 0 0 1 -7.93,7.93l-25.86,0a8,8 0 0 1 -7.93,-7.93l0,0a8,8 0 0 1 7.93,-7.93zm29.16,99.39l-33.22,0l-2.81,7.85l39.4,0l-3.37,-7.85zm-40.61,-17.81a3.32,3.32 0 0 1 0,-6.64l36,0a3.32,3.32 0 0 1 0,6.64l-36,0zm0,-18.14a3.32,3.32 0 0 1 0,-6.64l36,0a3.32,3.32 0 0 1 0,6.64l-36,0zm0,-18.15a3.32,3.32 0 0 1 0,-6.64l36,0a3.32,3.32 0 0 1 0,6.64l-36,0zm54.59,-18.29l0,65.69a18.69,18.69 0 0 0 17.1,-18.56l0,-26.95a20.51,20.51 0 0 0 -17.1,-20.18z"/>
  <line stroke-width="5" stroke-linecap="undefined" stroke-linejoin="undefined" id="svg_2" y2="116.22571" x2="125.72571" y1="0.22571" x1="0.01142" stroke="#000" fill="none"/>
 </g>
</svg>